# xmcd
#
# Track frame offsets: 
#        187
#        15462
#        26450
#        37850
#        49040
#        65020
#        79177
#        91475
#        103825
#        116875
#        137780
#        151257
#        163185
#        177365
#        191487
#        202480
#        215365
#        227275
#        258875
#
# Disc length: 3610 seconds
#
# Revision: 2
# Processed by: cddbd v1.5.2PL0 Copyright (c) Steve Scherf et al.
# Submitted via: ExactAudioCopy v0.95b4
#
DISCID=030e1813
DTITLE=Various Artist - The Real Blues Brothers
DYEAR=2000
DGENRE=Blues
TTITLE0=Sonny Terry - Walk On
TTITLE1=Jimmy Reed - Baby What You Want Me To Do
TTITLE2=John Lee Hooker - Boom Boom Boom
TTITLE3=Eddie Taylor - Leave This Neighborhood
TTITLE4=John Lee Hooker - It Serves Me Right To Suffer
TTITLE5=Memphis Slim - Slim's Blues
TTITLE6=Pee Wee Crayton - I Love Her Still
TTITLE7=Jimmy Reed - Honest I Do
TTITLE8=John Lee Hooker - Whiskey And Wimmen
TTITLE9=Lightnin' Hopkins - Big Car Blues
TTITLE10=John Lee Hooker - Hobo Blues
TTITLE11=Roscoe Gordon - Jelly Jelly
TTITLE12=Pee Wee Crayton - Telephone Is Ringin'
TTITLE13=Memphis Slim - Messin' Around With The Blues
TTITLE14=John Lee Hooker - No Shoes
TTITLE15=Jimmy Reed - You Got Me Dizzy
TTITLE16=Billy Boy Arnold - Rockinitus
TTITLE17=Lightnin' Hopkins - Blues For Gamblers
TTITLE18=Jimmy Reed - Hush Hush
EXTD=
EXTT0=
EXTT1=
EXTT2=
EXTT3=
EXTT4=
EXTT5=
EXTT6=
EXTT7=
EXTT8=
EXTT9=
EXTT10=
EXTT11=
EXTT12=
EXTT13=
EXTT14=
EXTT15=
EXTT16=
EXTT17=
EXTT18=
PLAYORDER=
